<svg width="24" height="24" viewBox="0 0 24 24" fill="none" xmlns="http://www.w3.org/2000/svg">
<path d="M7 2.25C5.48122 2.25 4.25 3.48122 4.25 5V19C4.25 20.5188 5.48122 21.75 7 21.75H17C18.5188 21.75 19.75 20.5188 19.75 19V7.68934L14.3107 2.25H7Z" fill="#EB1D25"/>
<path opacity="0.48" d="M19.8107 7.75011L14.25 2.18945V5.00011C14.25 6.5189 15.4812 7.75011 17 7.75011H19.8107Z" fill="white"/>
<path d="M16.8264 15.4143C16.5261 15.0925 15.9254 14.9101 15.0673 14.9101C14.6061 14.9101 14.0805 14.953 13.5013 15.0603C13.1795 14.7385 12.847 14.3631 12.5359 13.9233C12.3107 13.6123 12.1176 13.2905 11.946 12.9687C12.2892 11.9068 12.4501 11.0487 12.4501 10.4266C12.4501 9.72938 12.2034 9 11.474 9C11.2488 9 11.0342 9.13944 10.9162 9.33251C10.5945 9.92245 10.7339 11.2096 11.3024 12.4753C11.0879 13.1081 10.8733 13.7195 10.5945 14.3953C10.3585 14.9638 10.0796 15.5644 9.78999 16.1008C8.15961 16.7658 7.10844 17.5381 7.0119 18.1387C6.969 18.364 7.04408 18.5785 7.20497 18.7394C7.25861 18.7823 7.47313 18.9647 7.82709 18.9647C8.91044 18.9647 10.0474 17.1841 10.6266 16.1008C11.0664 15.9506 11.5169 15.8111 11.9567 15.6824C12.4394 15.543 12.9328 15.4357 13.3725 15.3606C14.5095 16.4011 15.5178 16.5727 16.0219 16.5727C16.644 16.5727 16.8693 16.3153 16.9444 16.1008C17.0624 15.8326 16.9766 15.5323 16.8371 15.3714L16.8264 15.4143ZM16.2472 15.854C16.2043 16.0793 15.979 16.2295 15.668 16.2295C15.5821 16.2295 15.5071 16.2187 15.4213 16.1973C14.8528 16.0578 14.3272 15.7682 13.7909 15.3177C14.3165 15.2319 14.7562 15.2105 15.0351 15.2105C15.3462 15.2105 15.6143 15.2212 15.7859 15.2748C15.9897 15.3177 16.3115 15.4572 16.2472 15.854ZM13.1044 15.1461C12.7182 15.2212 12.3107 15.3177 11.8816 15.4357C11.5384 15.5323 11.1844 15.6288 10.8304 15.7575C11.0235 15.3821 11.1844 15.0174 11.3346 14.6742C11.5169 14.2451 11.6564 13.8161 11.8065 13.4085C11.9567 13.6659 12.1176 13.9233 12.2785 14.1486C12.5466 14.5025 12.8255 14.8458 13.1044 15.1461ZM11.1629 9.51486C11.2273 9.39687 11.3453 9.33251 11.4418 9.33251C11.7529 9.33251 11.8065 9.6972 11.8065 9.98681C11.8065 10.4695 11.6564 11.2096 11.4096 12.057C10.9806 10.8771 10.9484 9.901 11.1629 9.51486ZM9.54329 16.562C8.79245 17.8277 8.06307 18.6214 7.6233 18.6214C7.53749 18.6214 7.4624 18.5892 7.39805 18.5463C7.31224 18.4605 7.26933 18.3533 7.29078 18.2245C7.37659 17.774 8.22396 17.1412 9.54329 16.562Z" fill="white"/>
</svg>
