<svg width="24" height="24" viewBox="0 0 24 24" fill="none" xmlns="http://www.w3.org/2000/svg">
<path d="M7 2.25C5.48122 2.25 4.25 3.48122 4.25 5V19C4.25 20.5188 5.48122 21.75 7 21.75H17C18.5188 21.75 19.75 20.5188 19.75 19V7.68934L14.3107 2.25H7Z" fill="#9370CA"/>
<path opacity="0.48" d="M19.8107 7.75011L14.25 2.18945V5.00011C14.25 6.5189 15.4812 7.75011 17 7.75011H19.8107Z" fill="white"/>
<path d="M8.5 10.5867C8.5 9.67998 9.52485 9.15257 10.2627 9.67957L15.0332 13.0871C15.6556 13.5317 15.6556 14.4567 15.0332 14.9013L10.2627 18.3088C9.52485 18.8358 8.5 18.3084 8.5 17.4017V10.5867Z" fill="white"/>
</svg>
