<svg width="24" height="24" viewBox="0 0 24 24" fill="none" xmlns="http://www.w3.org/2000/svg">
<path d="M7 2.25C5.48122 2.25 4.25 3.48122 4.25 5V19C4.25 20.5188 5.48122 21.75 7 21.75H17C18.5188 21.75 19.75 20.5188 19.75 19V7.68934L14.3107 2.25H7Z" fill="#406CFF"/>
<path opacity="0.48" d="M19.8107 7.75011L14.25 2.18945V5.00011C14.25 6.5189 15.4812 7.75011 17 7.75011H19.8107Z" fill="white"/>
<path fill-rule="evenodd" clip-rule="evenodd" d="M8 9.25C8.41421 9.25 8.75 9.58579 8.75 10V16.1893L11.4697 13.4697C11.7626 13.1768 12.2374 13.1768 12.5303 13.4697L16.5303 17.4697C16.8232 17.7626 16.8232 18.2374 16.5303 18.5303C16.2374 18.8232 15.7626 18.8232 15.4697 18.5303L12 15.0607L8.53033 18.5303C8.31583 18.7448 7.99324 18.809 7.71299 18.6929C7.43273 18.5768 7.25 18.3033 7.25 18V10C7.25 9.58579 7.58579 9.25 8 9.25Z" fill="white"/>
<path opacity="0.48" fill-rule="evenodd" clip-rule="evenodd" d="M16 9.25C16.4142 9.25 16.75 9.58579 16.75 10V15C16.75 15.4142 16.4142 15.75 16 15.75C15.5858 15.75 15.25 15.4142 15.25 15V10C15.25 9.58579 15.5858 9.25 16 9.25Z" fill="white"/>
</svg>
