<svg width="24" height="24" viewBox="0 0 24 24" fill="none" xmlns="http://www.w3.org/2000/svg">
<path d="M7 2.25C5.48122 2.25 4.25 3.48122 4.25 5V19C4.25 20.5188 5.48122 21.75 7 21.75H17C18.5188 21.75 19.75 20.5188 19.75 19V7.68934L14.3107 2.25H7Z" fill="#2FA556"/>
<path opacity="0.48" d="M19.8107 7.75011L14.25 2.18945V5.00011C14.25 6.5189 15.4812 7.75011 17 7.75011H19.8107Z" fill="white"/>
<path fill-rule="evenodd" clip-rule="evenodd" d="M7.46967 9.46967C7.76256 9.17678 8.23744 9.17678 8.53033 9.46967L12.5303 13.4697C12.8232 13.7626 12.8232 14.2374 12.5303 14.5303C12.2374 14.8232 11.7626 14.8232 11.4697 14.5303L7.46967 10.5303C7.17678 10.2374 7.17678 9.76256 7.46967 9.46967Z" fill="white"/>
<path opacity="0.48" fill-rule="evenodd" clip-rule="evenodd" d="M12.9697 14.9697C13.2626 14.6768 13.7374 14.6768 14.0303 14.9697L16.5303 17.4697C16.8232 17.7626 16.8232 18.2374 16.5303 18.5303C16.2374 18.8232 15.7626 18.8232 15.4697 18.5303L12.9697 16.0303C12.6768 15.7374 12.6768 15.2626 12.9697 14.9697Z" fill="white"/>
<path fill-rule="evenodd" clip-rule="evenodd" d="M16.5303 9.46967C16.8232 9.76256 16.8232 10.2374 16.5303 10.5303L8.53033 18.5303C8.23744 18.8232 7.76256 18.8232 7.46967 18.5303C7.17678 18.2374 7.17678 17.7626 7.46967 17.4697L15.4697 9.46967C15.7626 9.17678 16.2374 9.17678 16.5303 9.46967Z" fill="white"/>
</svg>
