<svg width="24" height="24" viewBox="0 0 24 24" fill="none" xmlns="http://www.w3.org/2000/svg">
<path d="M7 2.25C5.48122 2.25 4.25 3.48122 4.25 5V19C4.25 20.5188 5.48122 21.75 7 21.75H17C18.5188 21.75 19.75 20.5188 19.75 19V7.68934L14.3107 2.25H7Z" fill="#5D7091"/>
<path opacity="0.48" d="M19.8107 7.75011L14.25 2.18945V5.00011C14.25 6.5189 15.4812 7.75011 17 7.75011H19.8107Z" fill="white"/>
<path opacity="0.48" d="M8.652 15.3567C9.04367 14.7301 9.95633 14.7301 10.348 15.3567L11.8819 17.8109C11.9591 17.9344 12 18.0772 12 18.2228C12 18.652 11.6521 18.9999 11.2229 18.9999H7.77712C7.34793 18.9999 7 18.652 7 18.2228C7 18.0772 7.04093 17.9344 7.11812 17.8109L8.652 15.3567Z" fill="white"/>
<path d="M12.1318 12.5195C12.5157 11.8477 13.4843 11.8477 13.8682 12.5195L16.8959 17.8179C16.9641 17.9373 17 18.0724 17 18.2099C17 18.6463 16.6462 19.0001 16.2098 19.0001H9.79016C9.35377 19.0001 9 18.6463 9 18.2099C9 18.0724 9.03589 17.9373 9.10411 17.8179L12.1318 12.5195Z" fill="white"/>
<circle cx="9" cy="11" r="2" fill="white"/>
</svg>
