<svg width="24" height="24" viewBox="0 0 24 24" fill="none" xmlns="http://www.w3.org/2000/svg">
<path d="M7 2.25C5.48122 2.25 4.25 3.48122 4.25 5V19C4.25 20.5188 5.48122 21.75 7 21.75H17C18.5188 21.75 19.75 20.5188 19.75 19V7.68934L14.3107 2.25H7Z" fill="#F9BD0F"/>
<path opacity="0.48" d="M19.8107 7.75011L14.25 2.18945V5.00011C14.25 6.5189 15.4812 7.75011 17 7.75011H19.8107Z" fill="white"/>
<path fill-rule="evenodd" clip-rule="evenodd" d="M7.25 10C7.25 9.58579 7.58579 9.25 8 9.25H14C15.5188 9.25 16.75 10.4812 16.75 12C16.75 13.5188 15.5188 14.75 14 14.75H8.75V18C8.75 18.4142 8.41421 18.75 8 18.75C7.58579 18.75 7.25 18.4142 7.25 18V14C7.25 13.5858 7.58579 13.25 8 13.25H14C14.6904 13.25 15.25 12.6904 15.25 12C15.25 11.3096 14.6904 10.75 14 10.75H8C7.58579 10.75 7.25 10.4142 7.25 10Z" fill="white"/>
<path opacity="0.48" fill-rule="evenodd" clip-rule="evenodd" d="M15 15.25C15.4142 15.25 15.75 15.5858 15.75 16V18C15.75 18.4142 15.4142 18.75 15 18.75C14.5858 18.75 14.25 18.4142 14.25 18V16C14.25 15.5858 14.5858 15.25 15 15.25Z" fill="white"/>
</svg>
