<svg width="24" height="24" viewBox="0 0 24 24" fill="none" xmlns="http://www.w3.org/2000/svg">
<path d="M7 2.25C5.48122 2.25 4.25 3.48122 4.25 5V19C4.25 20.5188 5.48122 21.75 7 21.75H17C18.5188 21.75 19.75 20.5188 19.75 19V7.68934L14.3107 2.25H7Z" fill="#DC4EC1"/>
<path opacity="0.48" d="M19.8107 7.75011L14.25 2.18945V5.00011C14.25 6.5189 15.4812 7.75011 17 7.75011H19.8107Z" fill="white"/>
<path fill-rule="evenodd" clip-rule="evenodd" d="M8 10.75C7.58579 10.75 7.25 10.4142 7.25 10C7.25 9.58579 7.58579 9.25 8 9.25H16C16.3033 9.25 16.5768 9.43273 16.6929 9.71299C16.809 9.99324 16.7448 10.3158 16.5303 10.5303L8.53033 18.5303C8.23744 18.8232 7.76256 18.8232 7.46967 18.5303C7.17678 18.2374 7.17678 17.7626 7.46967 17.4697L14.1893 10.75H8Z" fill="white"/>
<path opacity="0.48" fill-rule="evenodd" clip-rule="evenodd" d="M10.25 18C10.25 17.5858 10.5858 17.25 11 17.25H16C16.4142 17.25 16.75 17.5858 16.75 18C16.75 18.4142 16.4142 18.75 16 18.75H11C10.5858 18.75 10.25 18.4142 10.25 18Z" fill="white"/>
</svg>
