<svg width="20" height="20" viewBox="0 0 20 20" fill="none" xmlns="http://www.w3.org/2000/svg">
<path d="M5.00016 2.70703C3.73451 2.70703 2.7085 3.73305 2.7085 4.9987V9.30834C2.7085 9.91613 2.94994 10.499 3.37971 10.9288L9.21304 16.7621C10.108 17.6571 11.559 17.6571 12.4539 16.7621L16.7636 12.4525C17.6585 11.5575 17.6585 10.1065 16.7636 9.21158L10.9303 3.37824C10.5005 2.94847 9.91759 2.70703 9.30981 2.70703H5.00016Z" fill="white"/>
<path d="M5.00016 2.70703C3.73451 2.70703 2.7085 3.73305 2.7085 4.9987V9.30834C2.7085 9.91613 2.94994 10.499 3.37971 10.9288L9.21304 16.7621C10.108 17.6571 11.559 17.6571 12.4539 16.7621L16.7636 12.4525C17.6585 11.5575 17.6585 10.1065 16.7636 9.21158L10.9303 3.37824C10.5005 2.94847 9.91759 2.70703 9.30981 2.70703H5.00016Z" fill="#FF9500"/>
<path d="M2.7085 4.9987C2.7085 3.73305 3.73451 2.70703 5.00016 2.70703H9.30981C9.91759 2.70703 10.5005 2.94847 10.9303 3.37824L15.2477 7.69569C15.6228 8.07077 15.8335 8.57947 15.8335 9.10991V12.5542C15.8335 13.0846 15.6228 13.5933 15.2477 13.9684L12.4539 16.7621C11.559 17.6571 10.108 17.6571 9.21304 16.7621L3.37971 10.9288C2.94994 10.499 2.7085 9.91613 2.7085 9.30834V4.9987Z" fill="#FF9500"/>
</svg>
